Coordinates
version=1
nRows=26
nColumns=24
inDegrees=yes

Units are S.I. units (second, meters, Newtons, ...)
Angles are in degrees.

endheader
time	pelvis_tilt	pelvis_list	pelvis_rotation	pelvis_tx	pelvis_ty	pelvis_tz	hip_flexion_r	hip_adduction_r	hip_rotation_r	knee_angle_r	ankle_angle_r	subtalar_angle_r	mtp_angle_r	hip_flexion_l	hip_adduction_l	hip_rotation_l	knee_angle_l	ankle_angle_l	subtalar_angle_l	mtp_angle_l	lumbar_extension	lumbar_bending	lumbar_rotation
      1.71650000	     -2.21445595	      2.55602190	     -6.26970706	      1.30744838	      0.99510972	      0.33639438	     22.73802968	     -6.58029457	     -1.70952998	    -78.77805516	     -2.96882588	     -1.04678665	      4.16059734	     19.64532772	      2.07556310	    -10.74970205	    -19.71636007	      1.69117563	    -10.84014941	     -0.38033952	     -8.47151188	     -6.67598101	      5.68326017
      1.72066667	     -2.16343820	      2.48559168	     -6.00472913	      1.31220103	      0.99639957	      0.33568556	     23.40230606	     -6.47868357	     -1.96994649	    -78.76762359	     -2.54490887	     -1.05738223	      4.16304773	     19.11399031	      2.15765844	    -10.58360815	    -19.34643171	      1.75714181	    -10.61529137	     -0.36662474	     -8.59664282	     -6.53598148	      5.58353536
      1.72483333	     -2.03679983	      2.31184748	     -5.55861972	      1.31706586	      0.99791478	      0.33446871	     23.87239524	     -6.39810229	     -2.45912707	    -78.61352551	     -2.18535707	     -0.94106210	      4.15415056	     18.49099169	      2.22639423	    -10.16524499	    -18.96957935	      1.87557948	    -10.46104586	     -0.32851572	     -8.82688552	     -6.21590065	      5.07094277
      1.72900000	     -1.92011487	      2.16589984	     -5.17074265	      1.32184117	      0.99936431	      0.33342404	     24.37568088	     -6.31702406	     -2.89010752	    -78.44260258	     -1.81824690	     -0.94150452	      4.13897949	     17.87921648	      2.29001583	     -9.80030856	    -18.57698926	      1.92629596	    -10.33444231	     -0.29076700	     -9.04532369	     -5.96497622	      4.72952159
      1.73316667	     -1.81063422	      2.03614489	     -4.80989733	      1.32660904	      1.00076230	      0.33245350	     24.88986489	     -6.24520912	     -3.29137502	    -78.24253563	     -1.44875682	     -0.93491002	      4.11586524	     17.26894862	      2.35035946	     -9.48123946	    -18.16987261	      1.97337212	    -10.20919883	     -0.25082323	     -9.24210906	     -5.72259615	      4.38096790
      1.73733333	     -1.75757151	      1.94207614	     -4.55041270	      1.33130358	      1.00199530	      0.33177445	     25.50078248	     -6.14427045	     -3.57890718	    -78.04093966	     -1.07377277	     -1.03685164	      4.10491735	     16.72227241	      2.38942992	     -9.30337654	    -17.76705122	      1.96262285	    -10.05036391	     -0.23421078	     -9.36831679	     -5.54234719	      4.26191958
      1.74150000	     -1.56142778	      1.73898376	     -4.08776611	      1.33606471	      1.00357253	      0.33051508	     25.83462321	     -6.08690503	     -4.12361484	    -77.68082737	     -0.78952386	     -0.98882968	      4.06139473	     16.01433210	      2.41577771	     -8.82656389	    -17.35438429	      2.06178130	     -9.97948308	     -0.18668173	     -9.67400639	     -5.18346620	      3.76678460
      1.74566667	     -1.43723907	      1.60503300	     -3.76299622	      1.34076632	      1.00494821	      0.32962164	     26.30069731	     -6.01839300	     -4.51407813	    -77.33594518	     -0.47668478	     -1.05397053	      4.00991786	     15.37139959	      2.44814151	     -8.50747781	    -16.90735916	      2.07148254	     -9.92273929	     -0.14048503	     -9.88329778	     -4.94777854	      3.47280602
      1.74983333	     -1.30643736	      1.48398301	     -3.45081253	      1.34546460	      1.00628848	      0.32878145	     26.75209473	     -5.96043380	     -4.88355556	    -76.95905412	     -0.16318595	     -1.09438794	      3.95272726	     14.71938591	      2.48029062	     -8.22461111	    -16.45353318	      2.08900058	     -9.84086646	     -0.09413012	    -10.09997584	     -4.71242717	      3.21954100
      1.75400000	     -1.18807327	      1.33086669	     -3.12286759	      1.35012736	      1.00758998	      0.32792537	     27.19239401	     -5.87891280	     -5.28521215	    -76.52350960	      0.13270269	     -1.16746304	      3.88460300	     14.09271756	      2.47335865	     -7.91720163	    -16.02756314	      2.12079534	     -9.76054458	     -0.04725336	    -10.29763221	     -4.43812375	      2.96461196
      1.75816667	     -1.16526767	      1.27065257	     -2.93173204	      1.35475455	      1.00861577	      0.32742683	     27.79376826	     -5.80971307	     -5.51567703	    -76.11697768	      0.44834358	     -1.27898211	      3.86024821	     13.56115437	      2.50619757	     -7.78405479	    -15.57686531	      2.10120315	     -9.65785174	     -0.03119812	    -10.37404567	     -4.30324431	      2.86979835
      1.76233333	     -0.97078052	      1.07910152	     -2.56439205	      1.35941402	      1.01002611	      0.32643562	     28.09078054	     -5.74183618	     -5.98785174	    -75.55376908	      0.67810007	     -1.30902769	      3.77187848	     12.85047094	      2.47302117	     -7.39323708	    -15.14062257	      2.16725191	     -9.63821341	      0.02030758	    -10.66433291	     -3.97150659	      2.49448832
      1.76650000	     -0.85553823	      0.96710717	     -2.28853241	      1.36402111	      1.01119491	      0.32569936	     28.51394697	     -5.69561279	     -6.33386966	    -75.01014808	      0.94815508	     -1.37695712	      3.67534198	     12.21652332	      2.48385283	     -7.11025375	    -14.67850678	      2.16428301	     -9.63459700	      0.06953644	    -10.85318018	     -3.75048964	      2.27136210
      1.77066667	     -0.85786809	      0.90648623	     -2.11840371	      1.36859532	      1.01205005	      0.32529834	     29.10271657	     -5.62297316	     -6.54667237	    -74.48241346	      1.24955911	     -1.47753911	      3.64506535	     11.72700039	      2.49319245	     -6.99934138	    -14.25361504	      2.17336393	     -9.53202875	      0.08479107	    -10.89474907	     -3.61658518	      2.20998152
      1.77483333	     -0.69232270	      0.73923360	     -1.80530179	      1.37321879	      1.01329040	      0.32446216	     29.39952067	     -5.56092574	     -6.96642253	    -73.80045448	      1.44641234	     -1.53027693	      3.52815989	     11.04378471	      2.44972239	     -6.65526505	    -13.80136355	      2.21551780	     -9.54549497	      0.13629634	    -11.14378119	     -3.31940883	      1.92399181
      1.77900000	     -0.70077332	      0.68573868	     -1.63529132	      1.37775820	      1.01405268	      0.32407110	     29.96557589	     -5.50424272	     -7.17877079	    -73.18897301	      1.71321030	     -1.62600989	      3.48126524	     10.56501295	      2.46269429	     -6.51254121	    -13.37953302	      2.21663063	     -9.47478009	      0.15798049	    -11.18855016	     -3.18993529	      1.84054027
      1.78316667	     -0.58908080	      0.54483927	     -1.35419751	      1.38235519	      1.01509599	      0.32334679	     30.30751120	     -5.45261336	     -7.55653341	    -72.44163985	      1.88436496	     -1.68351678	      3.35470930	      9.94913570	      2.42254793	     -6.20872262	    -12.94104509	      2.25270982	     -9.51189696	      0.21210160	    -11.36123434	     -2.93507414	      1.59495817
      1.78733333	     -0.60885057	      0.52094267	     -1.22213776	      1.38692740	      1.01574317	      0.32304639	     30.85668907	     -5.41591803	     -7.73071540	    -71.75360032	      2.14545352	     -1.77359061	      3.31846752	      9.47926034	      2.45094141	     -6.11660000	    -12.51706428	      2.26266350	     -9.43639621	      0.22755565	    -11.37478358	     -2.85218396	      1.55004562
      1.79150000	     -0.51505626	      0.37192498	     -0.94975594	      1.39147913	      1.01667493	      0.32235591	     31.18079732	     -5.35451332	     -8.10173268	    -70.91580107	      2.27616054	     -1.83217044	      3.18242445	      8.90112896	      2.38806973	     -5.80879974	    -12.11012050	      2.31457296	     -9.46488250	      0.28156982	    -11.54256407	     -2.56992429	      1.34287719
      1.79566667	     -0.56222986	      0.36728404	     -0.83827400	      1.39604335	      1.01717810	      0.32211851	     31.73078953	     -5.32796081	     -8.24644868	    -70.15262422	      2.51743198	     -1.90787661	      3.15217372	      8.47076818	      2.42453170	     -5.73685015	    -11.70878974	      2.34750045	     -9.38455313	      0.29382639	    -11.52518860	     -2.50740593	      1.29139830
      1.79983333	     -0.49302497	      0.23015282	     -0.57223066	      1.40059545	      1.01797488	      0.32149915	     32.04854730	     -5.27275998	     -8.60236854	    -69.23269993	      2.62845425	     -1.98159929	      3.00742543	      7.93090756	      2.35611839	     -5.44588627	    -11.32410757	      2.39943574	     -9.40130952	      0.34776050	    -11.65444828	     -2.26283260	      1.08368290
      1.80400000	     -0.48559069	      0.16585314	     -0.37381898	      1.40514910	      1.01855532	      0.32102749	     32.45169411	     -5.25442690	     -8.86169299	    -68.32883416	      2.81114918	     -2.02508373	      2.85235734	      7.45783962	      2.34637873	     -5.24483390	    -10.94636298	      2.43673016	     -9.38415617	      0.40824331	    -11.70944921	     -2.10014002	      0.90293515
      1.80816667	     -0.50489554	      0.11856105	     -0.20771626	      1.40969942	      1.01903701	      0.32066369	     32.87562145	     -5.22769835	     -9.07853711	    -67.38822208	      2.97606827	     -2.09367431	      2.71323995	      7.01500250	      2.34040814	     -5.09176320	    -10.57248231	      2.48401097	     -9.34075586	      0.45997831	    -11.72800984	     -1.97350318	      0.82507824
      1.81233333	     -0.56940613	      0.14378570	     -0.10305965	      1.41423149	      1.01932325	      0.32045221	     33.37036508	     -5.23352817	     -9.19847070	    -66.46282991	      3.16989652	     -2.17207840	      2.67758430	      6.61807733	      2.39684639	     -5.01100837	    -10.19400185	      2.52642903	     -9.25498541	      0.47357134	    -11.70120273	     -1.93787141	      0.78059879
      1.81650000	     -0.55121146	      0.02143807	      0.14905187	      1.41879346	      1.01986422	      0.31990553	     33.65694031	     -5.18954425	     -9.53575133	    -65.37194180	      3.24309871	     -2.26567466	      2.51660080	      6.16627760	      2.31497256	     -4.76876907	     -9.88303902	      2.63403247	     -9.20138874	      0.53045784	    -11.76533036	     -1.71150195	      0.59309986
      1.82066667	     -0.61415337	      0.03817264	      0.25880632	      1.42339569	      1.02010473	      0.31970130	     34.08747864	     -5.19124528	     -9.66601740	    -64.33950094	      3.44410629	     -2.32327974	      2.46091356	      5.77715462	      2.35469011	     -4.69859042	     -9.53282360	      2.64913034	     -9.13043813	      0.54959710	    -11.72104375	     -1.68086435	      0.53605325
